<svg width="330" height="116" viewBox="0 0 330 116" fill="none" xmlns="http://www.w3.org/2000/svg">
<path d="M55.964 68V0.799995H63.836L93.98 51.584H89.756L119.516 0.799995H127.388L127.484 68H118.268L118.172 15.296H120.38L93.884 59.84H89.468L62.78 15.296H65.18V68H55.964ZM192.198 63.488V9.152H162.726L162.246 23.264C162.054 28 161.734 32.544 161.286 36.896C160.902 41.248 160.326 45.184 159.558 48.704C158.79 52.16 157.702 55.008 156.294 57.248C154.95 59.488 153.222 60.864 151.11 61.376L140.742 59.648C143.238 59.84 145.286 59.008 146.886 57.152C148.55 55.232 149.83 52.576 150.726 49.184C151.686 45.728 152.39 41.728 152.838 37.184C153.286 32.576 153.606 27.648 153.798 22.4L154.47 0.799995H201.702V63.488H192.198ZM138.342 82.688L138.438 59.648H211.59V82.688H202.662V68H147.366L147.27 82.688H138.342ZM269.93 68L245.546 34.88L253.322 30.08L280.874 68H269.93ZM224.714 68V0.799995H234.122V68H224.714ZM231.242 38.432V29.984H253.034V38.432H231.242ZM254.186 35.456L245.354 34.112L269.45 0.799995H279.722L254.186 35.456ZM0.00489856 112V93.8H2.1369L10.3009 107.554H9.1569L17.2169 93.8H19.3489L19.3749 112H16.8789L16.8529 97.726H17.4509L10.2749 109.79H9.0789L1.8509 97.726H2.5009V112H0.00489856ZM33.0221 100.144C35.1714 100.144 36.8267 100.629 37.9881 101.6C39.1494 102.553 39.7301 103.983 39.7301 105.89C39.7301 107.901 39.0974 109.426 37.8321 110.466C36.5841 111.489 34.8247 112 32.5541 112H25.0401V93.8H27.6141V100.144H33.0221ZM32.4501 109.946C33.9581 109.946 35.1107 109.608 35.9081 108.932C36.7227 108.256 37.1301 107.259 37.1301 105.942C37.1301 104.659 36.7314 103.715 35.9341 103.108C35.1367 102.501 33.9754 102.198 32.4501 102.198H27.6141V109.946H32.4501ZM42.6161 112V93.8H45.1901V112H42.6161ZM69.9347 110.778V96.062H61.9527L61.8227 99.884C61.7707 101.167 61.6841 102.397 61.5627 103.576C61.4587 104.755 61.3027 105.821 61.0947 106.774C60.8867 107.71 60.5921 108.481 60.2107 109.088C59.8467 109.695 59.3787 110.067 58.8067 110.206L55.9987 109.738C56.6747 109.79 57.2294 109.565 57.6627 109.062C58.1134 108.542 58.4601 107.823 58.7027 106.904C58.9627 105.968 59.1534 104.885 59.2747 103.654C59.3961 102.406 59.4827 101.071 59.5347 99.65L59.7167 93.8H72.5087V110.778H69.9347ZM55.3487 115.978L55.3747 109.738H75.1867V115.978H72.7687V112H57.7927L57.7667 115.978H55.3487ZM81.1072 101.652H90.4672V103.862H81.1072V101.652ZM81.3412 109.738H91.9492V112H78.7412V93.8H91.5852V96.062H81.3412V109.738ZM95.1742 112.208C94.9142 112.208 94.6542 112.191 94.3942 112.156C94.1342 112.121 93.8482 112.069 93.5362 112L93.7182 109.686C93.9956 109.755 94.2729 109.79 94.5502 109.79C95.3129 109.79 95.9196 109.487 96.3702 108.88C96.8209 108.273 97.1502 107.355 97.3582 106.124C97.5836 104.893 97.7309 103.342 97.8002 101.47L98.0862 93.8H110.904V112H108.356V95.386L108.98 96.062H99.7502L100.322 95.36L100.114 101.392C100.062 103.195 99.9409 104.772 99.7502 106.124C99.5596 107.476 99.2736 108.603 98.8922 109.504C98.5109 110.405 98.0169 111.081 97.4102 111.532C96.8209 111.983 96.0756 112.208 95.1742 112.208ZM114.051 112L122.293 93.8H124.867L133.135 112H130.405L123.047 95.256H124.087L116.729 112H114.051ZM117.561 107.45L118.263 105.37H128.507L129.261 107.45H117.561ZM138.642 101.652H148.002V103.862H138.642V101.652ZM138.876 109.738H149.484V112H136.276V93.8H149.12V96.062H138.876V109.738ZM153.567 112V93.8H155.699L163.863 107.554H162.719L170.779 93.8H172.911L172.937 112H170.441L170.415 97.726H171.013L163.837 109.79H162.641L155.413 97.726H156.063V112H153.567ZM197.831 112L191.227 103.03L193.333 101.73L200.795 112H197.831ZM185.585 112V93.8H188.133V112H185.585ZM187.353 103.992V101.704H193.255V103.992H187.353ZM193.567 103.186L191.175 102.822L197.701 93.8H200.483L193.567 103.186ZM200.684 112L208.926 93.8H211.5L219.768 112H217.038L209.68 95.256H210.72L203.362 112H200.684ZM204.194 107.45L204.896 105.37H215.14L215.894 107.45H204.194ZM233.001 104.616C231.978 105.049 230.982 105.379 230.011 105.604C229.058 105.812 228.13 105.916 227.229 105.916C225.01 105.916 223.286 105.379 222.055 104.304C220.842 103.229 220.235 101.695 220.235 99.702V93.8H222.783V99.416C222.783 100.768 223.199 101.808 224.031 102.536C224.863 103.264 226.024 103.628 227.515 103.628C228.399 103.628 229.3 103.515 230.219 103.29C231.155 103.065 232.065 102.735 232.949 102.302L233.001 104.616ZM232.559 112V93.8H235.133V112H232.559ZM243.176 101.652H252.536V103.862H243.176V101.652ZM243.41 109.738H254.018V112H240.81V93.8H253.654V96.062H243.41V109.738ZM266.213 112.208C264.827 112.208 263.544 111.983 262.365 111.532C261.204 111.064 260.19 110.414 259.323 109.582C258.474 108.733 257.807 107.745 257.321 106.618C256.836 105.491 256.593 104.252 256.593 102.9C256.593 101.548 256.836 100.309 257.321 99.182C257.807 98.0553 258.483 97.076 259.349 96.244C260.216 95.3947 261.23 94.7447 262.391 94.294C263.57 93.826 264.853 93.592 266.239 93.592C267.643 93.592 268.935 93.8347 270.113 94.32C271.309 94.788 272.323 95.49 273.155 96.426L271.465 98.064C270.772 97.336 269.992 96.7987 269.125 96.452C268.259 96.088 267.331 95.906 266.343 95.906C265.321 95.906 264.367 96.0793 263.483 96.426C262.617 96.7727 261.863 97.258 261.221 97.882C260.58 98.506 260.077 99.2513 259.713 100.118C259.367 100.967 259.193 101.895 259.193 102.9C259.193 103.905 259.367 104.841 259.713 105.708C260.077 106.557 260.58 107.294 261.221 107.918C261.863 108.542 262.617 109.027 263.483 109.374C264.367 109.721 265.321 109.894 266.343 109.894C267.331 109.894 268.259 109.721 269.125 109.374C269.992 109.01 270.772 108.455 271.465 107.71L273.155 109.348C272.323 110.284 271.309 110.995 270.113 111.48C268.935 111.965 267.635 112.208 266.213 112.208ZM280.252 112V95.386L280.902 96.062H274.038V93.8H289.04V96.062H282.176L282.8 95.386V112H280.252ZM292.2 112V93.8H300.026C302.002 93.8 303.554 94.1987 304.68 94.996C305.807 95.7933 306.37 96.9547 306.37 98.48C306.37 99.9707 305.833 101.115 304.758 101.912C303.684 102.692 302.271 103.082 300.52 103.082L300.988 102.302C303.016 102.302 304.568 102.709 305.642 103.524C306.734 104.321 307.28 105.491 307.28 107.034C307.28 108.594 306.708 109.816 305.564 110.7C304.438 111.567 302.756 112 300.52 112H292.2ZM294.774 109.946H300.468C301.855 109.946 302.895 109.695 303.588 109.192C304.299 108.672 304.654 107.883 304.654 106.826C304.654 105.769 304.299 104.997 303.588 104.512C302.895 104.027 301.855 103.784 300.468 103.784H294.774V109.946ZM294.774 101.808H299.844C301.11 101.808 302.072 101.557 302.73 101.054C303.406 100.551 303.744 99.8147 303.744 98.844C303.744 97.856 303.406 97.1107 302.73 96.608C302.072 96.1053 301.11 95.854 299.844 95.854H294.774V101.808ZM319.814 112.208C318.427 112.208 317.136 111.974 315.94 111.506C314.761 111.038 313.739 110.388 312.872 109.556C312.005 108.707 311.329 107.719 310.844 106.592C310.359 105.465 310.116 104.235 310.116 102.9C310.116 101.565 310.359 100.335 310.844 99.208C311.329 98.0813 312.005 97.102 312.872 96.27C313.739 95.4207 314.761 94.762 315.94 94.294C317.119 93.826 318.41 93.592 319.814 93.592C321.201 93.592 322.475 93.826 323.636 94.294C324.815 94.7447 325.837 95.3947 326.704 96.244C327.588 97.076 328.264 98.0553 328.732 99.182C329.217 100.309 329.46 101.548 329.46 102.9C329.46 104.252 329.217 105.491 328.732 106.618C328.264 107.745 327.588 108.733 326.704 109.582C325.837 110.414 324.815 111.064 323.636 111.532C322.475 111.983 321.201 112.208 319.814 112.208ZM319.814 109.894C320.819 109.894 321.747 109.721 322.596 109.374C323.463 109.027 324.208 108.542 324.832 107.918C325.473 107.277 325.967 106.531 326.314 105.682C326.678 104.833 326.86 103.905 326.86 102.9C326.86 101.895 326.678 100.967 326.314 100.118C325.967 99.2687 325.473 98.532 324.832 97.908C324.208 97.2667 323.463 96.7727 322.596 96.426C321.747 96.0793 320.819 95.906 319.814 95.906C318.791 95.906 317.847 96.0793 316.98 96.426C316.131 96.7727 315.385 97.2667 314.744 97.908C314.103 98.532 313.6 99.2687 313.236 100.118C312.889 100.967 312.716 101.895 312.716 102.9C312.716 103.905 312.889 104.833 313.236 105.682C313.6 106.531 314.103 107.277 314.744 107.918C315.385 108.542 316.131 109.027 316.98 109.374C317.847 109.721 318.791 109.894 319.814 109.894Z" fill="#484444"/>
</svg>
