<svg width="461" height="141" viewBox="0 0 461 141" fill="none" xmlns="http://www.w3.org/2000/svg">
<path d="M13.464 97V29.8H21.336L51.48 80.584H47.256L77.016 29.8H84.888L84.984 97H75.768L75.672 44.296H77.88L51.384 88.84H46.968L20.28 44.296H22.68V97H13.464ZM149.698 92.488V38.152H120.226L119.746 52.264C119.554 57 119.234 61.544 118.786 65.896C118.402 70.248 117.826 74.184 117.058 77.704C116.29 81.16 115.202 84.008 113.794 86.248C112.45 88.488 110.722 89.864 108.61 90.376L98.2418 88.648C100.738 88.84 102.786 88.008 104.386 86.152C106.05 84.232 107.33 81.576 108.226 78.184C109.186 74.728 109.89 70.728 110.338 66.184C110.786 61.576 111.106 56.648 111.298 51.4L111.97 29.8H159.202V92.488H149.698ZM95.8418 111.688L95.9378 88.648H169.09V111.688H160.162V97H104.866L104.77 111.688H95.8418ZM227.43 97L203.046 63.88L210.822 59.08L238.374 97H227.43ZM182.214 97V29.8H191.622V97H182.214ZM188.742 67.432V58.984H210.534V67.432H188.742ZM211.686 64.456L202.854 63.112L226.95 29.8H237.222L211.686 64.456Z" fill="white"/>
<path d="M246.304 22V2.4H248.012L256.972 17.688H256.076L264.952 2.4H266.66V22H264.672V5.508H265.148L256.972 19.508H255.992L247.76 5.508H248.292V22H246.304ZM281.469 9.4C283.784 9.4 285.548 9.92267 286.761 10.968C287.993 11.9947 288.609 13.5253 288.609 15.56C288.609 17.6693 287.956 19.2747 286.649 20.376C285.342 21.4587 283.476 22 281.049 22H273.265V2.4H275.309V9.4H281.469ZM280.993 20.348C282.804 20.348 284.176 19.9467 285.109 19.144C286.061 18.3413 286.537 17.1653 286.537 15.616C286.537 14.0667 286.07 12.928 285.137 12.2C284.204 11.4533 282.822 11.08 280.993 11.08H275.309V20.348H280.993ZM291.997 22V2.4H294.041V22H291.997ZM259.324 71.02V54.192H249.944L249.776 58.952C249.72 60.4267 249.627 61.8453 249.496 63.208C249.384 64.552 249.197 65.7653 248.936 66.848C248.693 67.912 248.357 68.78 247.928 69.452C247.517 70.124 246.976 70.516 246.304 70.628L244.036 70.208C244.783 70.2453 245.399 69.9747 245.884 69.396C246.388 68.8173 246.771 68.0053 247.032 66.96C247.312 65.9147 247.517 64.692 247.648 63.292C247.779 61.892 247.872 60.38 247.928 58.756L248.152 52.4H261.368V71.02H259.324ZM243.308 76.396L243.336 70.208H264.308V76.396H262.376V72H245.268L245.24 76.396H243.308ZM270.382 61.164H280.742V62.928H270.382V61.164ZM270.606 70.208H282.394V72H268.534V52.4H281.974V54.192H270.606V70.208ZM285.564 72.168C285.302 72.168 285.05 72.1493 284.808 72.112C284.565 72.0933 284.294 72.0467 283.996 71.972L284.164 70.124C284.481 70.1987 284.789 70.236 285.088 70.236C285.928 70.236 286.6 69.9093 287.104 69.256C287.626 68.584 288.018 67.5573 288.28 66.176C288.541 64.776 288.709 62.984 288.784 60.8L289.064 52.4H302.364V72H300.32V53.632L300.852 54.192H290.38L290.883 53.604L290.632 60.744C290.557 62.704 290.417 64.4027 290.212 65.84C290.006 67.2587 289.708 68.444 289.316 69.396C288.924 70.3293 288.42 71.0293 287.803 71.496C287.188 71.944 286.441 72.168 285.564 72.168ZM306.092 72L315.052 52.4H317.096L326.056 72H323.872L315.64 53.604H316.48L308.248 72H306.092ZM309.62 66.764L310.236 65.084H321.632L322.248 66.764H309.62ZM331.66 61.164H342.02V62.928H331.66V61.164ZM331.884 70.208H343.672V72H329.812V52.4H343.252V54.192H331.884V70.208ZM348.269 72V52.4H349.977L358.937 67.688H358.041L366.917 52.4H368.625V72H366.637V55.508H367.113L358.937 69.508H357.957L349.725 55.508H350.257V72H348.269ZM259.716 122L252.184 112.228L253.864 111.22L262.096 122H259.716ZM246.304 122V102.4H248.32V122H246.304ZM247.704 113.012V111.192H253.836V113.012H247.704ZM254.032 112.424L252.128 112.088L259.436 102.4H261.676L254.032 112.424ZM262.178 122L271.138 102.4H273.182L282.142 122H279.958L271.726 103.604H272.566L264.334 122H262.178ZM265.706 116.764L266.322 115.084H277.718L278.334 116.764H265.706ZM296.82 113.712C295.7 114.216 294.58 114.599 293.46 114.86C292.359 115.121 291.295 115.252 290.268 115.252C287.972 115.252 286.18 114.701 284.892 113.6C283.623 112.48 282.988 110.903 282.988 108.868V102.4H285.032V108.644C285.032 110.156 285.508 111.332 286.46 112.172C287.431 113.012 288.765 113.432 290.464 113.432C291.472 113.432 292.517 113.301 293.6 113.04C294.683 112.76 295.756 112.368 296.82 111.864V113.712ZM296.456 122V102.4H298.472V122H296.456ZM306.968 111.164H317.328V112.928H306.968V111.164ZM307.192 120.208H318.98V122H305.12V102.4H318.56V104.192H307.192V120.208ZM332.091 122.168C330.616 122.168 329.253 121.925 328.003 121.44C326.752 120.936 325.669 120.236 324.755 119.34C323.84 118.444 323.121 117.389 322.599 116.176C322.095 114.963 321.843 113.637 321.843 112.2C321.843 110.763 322.095 109.437 322.599 108.224C323.121 107.011 323.84 105.956 324.755 105.06C325.688 104.164 326.78 103.473 328.031 102.988C329.281 102.484 330.644 102.232 332.119 102.232C333.537 102.232 334.872 102.475 336.123 102.96C337.373 103.427 338.428 104.136 339.287 105.088L337.971 106.404C337.168 105.583 336.281 104.995 335.311 104.64C334.34 104.267 333.295 104.08 332.175 104.08C330.999 104.08 329.907 104.285 328.899 104.696C327.891 105.088 327.013 105.657 326.267 106.404C325.52 107.132 324.932 107.991 324.503 108.98C324.092 109.951 323.887 111.024 323.887 112.2C323.887 113.376 324.092 114.459 324.503 115.448C324.932 116.419 325.52 117.277 326.267 118.024C327.013 118.752 327.891 119.321 328.899 119.732C329.907 120.124 330.999 120.32 332.175 120.32C333.295 120.32 334.34 120.133 335.311 119.76C336.281 119.387 337.168 118.789 337.971 117.968L339.287 119.284C338.428 120.236 337.373 120.955 336.123 121.44C334.872 121.925 333.528 122.168 332.091 122.168ZM347.212 122V103.632L347.772 104.192H340.324V102.4H356.144V104.192H348.724L349.256 103.632V122H347.212ZM359.781 122V102.4H367.929C370.001 102.4 371.625 102.829 372.801 103.688C373.995 104.528 374.593 105.769 374.593 107.412C374.593 109.036 374.023 110.268 372.885 111.108C371.746 111.929 370.253 112.34 368.405 112.34L368.881 111.64C371.065 111.64 372.726 112.069 373.865 112.928C375.003 113.787 375.573 115.047 375.573 116.708C375.573 118.388 374.975 119.695 373.781 120.628C372.605 121.543 370.831 122 368.461 122H359.781ZM361.825 120.348H368.461C370.122 120.348 371.382 120.04 372.241 119.424C373.099 118.808 373.529 117.856 373.529 116.568C373.529 115.299 373.099 114.365 372.241 113.768C371.382 113.171 370.122 112.872 368.461 112.872H361.825V120.348ZM361.825 111.276H367.817C369.329 111.276 370.486 110.977 371.289 110.38C372.11 109.764 372.521 108.859 372.521 107.664C372.521 106.469 372.11 105.573 371.289 104.976C370.486 104.36 369.329 104.052 367.817 104.052H361.825V111.276ZM389.349 122.168C387.875 122.168 386.503 121.925 385.233 121.44C383.983 120.936 382.891 120.236 381.957 119.34C381.043 118.425 380.324 117.371 379.801 116.176C379.297 114.963 379.045 113.637 379.045 112.2C379.045 110.763 379.297 109.447 379.801 108.252C380.324 107.039 381.043 105.984 381.957 105.088C382.891 104.173 383.983 103.473 385.233 102.988C386.484 102.484 387.856 102.232 389.349 102.232C390.824 102.232 392.187 102.484 393.437 102.988C394.688 103.473 395.771 104.164 396.685 105.06C397.619 105.956 398.337 107.011 398.841 108.224C399.364 109.437 399.625 110.763 399.625 112.2C399.625 113.637 399.364 114.963 398.841 116.176C398.337 117.389 397.619 118.444 396.685 119.34C395.771 120.236 394.688 120.936 393.437 121.44C392.187 121.925 390.824 122.168 389.349 122.168ZM389.349 120.32C390.525 120.32 391.608 120.124 392.597 119.732C393.605 119.321 394.473 118.752 395.201 118.024C395.948 117.277 396.527 116.419 396.937 115.448C397.348 114.459 397.553 113.376 397.553 112.2C397.553 111.024 397.348 109.951 396.937 108.98C396.527 107.991 395.948 107.132 395.201 106.404C394.473 105.657 393.605 105.088 392.597 104.696C391.608 104.285 390.525 104.08 389.349 104.08C388.173 104.08 387.081 104.285 386.073 104.696C385.065 105.088 384.188 105.657 383.441 106.404C382.713 107.132 382.135 107.991 381.705 108.98C381.295 109.951 381.089 111.024 381.089 112.2C381.089 113.357 381.295 114.431 381.705 115.42C382.135 116.409 382.713 117.277 383.441 118.024C384.188 118.752 385.065 119.321 386.073 119.732C387.081 120.124 388.173 120.32 389.349 120.32Z" fill="white"/>
</svg>
